# xmcd
#
# Track frame offsets: 
#        182
#        12152
#        22142
#        31352
#        40557
#        52565
#        62687
#        73545
#        84365
#        97807
#
# Disc length: 1471 seconds
#
# Revision: 3
# Processed by: cddbd v1.5.2PL0 Copyright (c) Steve Scherf et al.
# Submitted via: ExactAudioCopy v1.0b3
#
DISCID=6905bd0a
DTITLE=Various Artist - Billboard Top Country Hits - 1963
DYEAR=1990
DGENRE=Country
TTITLE0=Johnny Cash - Ring Of Fire
TTITLE1=Ned Miller - From A Jack To A King
TTITLE2=Buck Owens - Love's Gonna Live Here
TTITLE3=Marty Robbiins - Ruby Ann
TTITLE4=Skeeter Davis - The End Of The World
TTITLE5=George Hamilton IV - Abilene
TTITLE6=Dave Dudley - Six Days On The Road
TTITLE7=Buck Owens - Act Naturally
TTITLE8=Carl Butler - Don't Let Me Cross Over
TTITLE9=Bill Anderson - Still
EXTD=YEAR: 1990
EXTT0=
EXTT1=
EXTT2=
EXTT3=
EXTT4=
EXTT5=
EXTT6=
EXTT7=
EXTT8=
EXTT9=
PLAYORDER=
